<svg xmlns="http://www.w3.org/2000/svg" data-name="Layer 1" viewBox="0 0 499.36 470.67">
  <title>
    donut
  </title>
  <path d="M457.75 304.21H152.58V179.37a13.87 13.87 0 0 0-27.74 0v124.84H41.61A41.92 41.92 0 0 0 0 345.83v83.23a41.92 41.92 0 0 0 41.61 41.61h416.14a41.92 41.92 0 0 0 41.61-41.61v-83.23a41.92 41.92 0 0 0-41.61-41.62zm13.87 124.84a13.74 13.74 0 0 1-13.87 13.87H41.61a13.74 13.74 0 0 1-13.87-13.87v-83.22A13.74 13.74 0 0 1 41.61 332h416.14a13.74 13.74 0 0 1 13.87 13.87z"/>
  <path d="M69.36 386.24h33.16v33.16H69.36zm49.73 0h33.16v33.16h-33.16zm49.74 0h33.16v33.16h-33.16zm52.13 0h33.16v33.16h-33.16z"/>
  <circle cx="424" cy="371.57" r="13.87"/>
  <path d="M473.34 118.68h23.78v23.74h-23.78v-23.74zM8.12 142.42h23.74v-23.74H8.12zm35.78 17.8h23.74v-59.34H43.9zm393.65-5.93h23.74v-47.48h-23.73zm-35.79 11.87h23.74V94.95h-23.73zm-35.78 23.74h23.74V71.21h-23.73zm-35.78-23.74h23.74V94.95H330.2zm-35.78 47.47h23.7V47.47h-23.7zm-35.79 47.47h23.74V0h-23.74zm-35.8-47.47h23.74V47.47h-23.74zM187.05 178h23.74V83.08h-23.74zm-35.79-11.87H175V94.95h-23.74zm-35.79-11.87h23.74v-47.45h-23.73zM79.69 178h23.74V83.08H79.69z"/>
</svg>