<?xml version="1.0" standalone="no"?>
<!DOCTYPE svg PUBLIC "-//W3C//DTD SVG 20010904//EN"
 "http://www.w3.org/TR/2001/REC-SVG-20010904/DTD/svg10.dtd">
<svg version="1.0" xmlns="http://www.w3.org/2000/svg"
 width="499.000000pt" height="499.000000pt" viewBox="0 0 499.000000 499.000000"
 preserveAspectRatio="xMidYMid meet">
<metadata>
Created by potrace 1.11, written by Peter Selinger 2001-2013
</metadata>
<g transform="translate(0.000000,499.000000) scale(0.100000,-0.100000)"
fill="#000000" stroke="none">
<path d="M2592 4841 c-4 -3 -8 -590 -7 -1304 l0 -1297 40 -1 c70 -1 190 2 193
6 2 2 5 2500 2 2591 0 12 -212 16 -228 5z"/>
<path d="M2237 4368 c-9 -5 -12 -206 -11 -825 1 -450 2 -821 3 -825 1 -4 54
-6 119 -6 l117 0 0 823 c0 453 -3 826 -7 830 -9 9 -206 12 -221 3z"/>
<path d="M2957 4372 c-14 -3 -15 -81 -15 -832 l0 -829 119 1 119 0 0 829 c0
456 -3 829 -7 830 -27 3 -202 3 -216 1z"/>
<path d="M3663 4127 c-5 -8 -8 -1100 -4 -1164 1 -10 32 -13 119 -13 l117 0 0
590 c0 325 -2 590 -5 591 -31 7 -222 3 -227 -4z"/>
<path d="M797 4011 c-7 -14 -1 -931 5 -937 11 -10 220 -7 227 4 5 8 7 905 2
933 -1 8 -231 8 -234 0z"/>
<path d="M1872 3542 l3 -475 108 0 c60 1 111 4 115 8 4 4 7 217 7 475 l1 468
-118 -1 -118 0 2 -475z"/>
<path d="M1512 3543 l3 -358 105 0 c58 0 111 1 118 3 9 3 12 84 12 358 l0 354
-120 0 -120 0 2 -357z"/>
<path d="M3300 3543 l0 -358 107 2 c60 0 113 1 119 2 7 1 10 107 10 354 l-1
352 -117 3 -118 3 0 -358z"/>
<path d="M4019 3898 c-4 -9 -3 -708 1 -709 21 -4 214 -3 221 2 9 5 10 100 9
582 l0 127 -115 0 c-63 0 -116 -1 -116 -2z"/>
<path d="M439 3788 c-2 -186 1 -530 5 -536 3 -6 196 -8 226 -3 3 1 6 133 5
294 l0 292 -117 3 -118 3 -1 -53z"/>
<path d="M1154 3543 l1 -238 115 0 115 0 3 238 2 237 -118 0 -119 0 1 -237z"/>
<path d="M4373 3543 l2 -238 115 0 115 0 3 238 2 237 -120 0 -120 0 3 -237z"/>
<path d="M82 3543 l3 -118 117 -1 116 -1 0 118 -1 119 -119 0 -119 0 3 -117z"/>
<path d="M4730 3542 l0 -119 118 1 117 1 2 118 2 117 -119 0 -120 0 0 -118z"/>
<path d="M1368 3190 c-48 -9 -84 -33 -104 -72 -14 -27 -16 -101 -17 -669 l0
-639 -21 0 c-12 -1 -217 -2 -456 -4 -428 -2 -436 -3 -495 -25 -80 -31 -156
-91 -200 -157 -73 -109 -70 -84 -72 -635 -3 -464 -2 -500 16 -551 49 -142 165
-250 303 -282 41 -10 534 -12 2193 -11 l2140 1 57 23 c96 37 179 108 226 193
49 87 51 109 52 603 0 290 -4 481 -10 511 -36 158 -162 286 -315 319 -48 10
-388 12 -1585 13 -839 0 -1532 1 -1540 1 -13 1 -15 77 -15 624 1 342 -3 638
-8 657 -17 66 -84 111 -149 100z m3281 -1682 c13 -9 32 -31 43 -49 19 -31 20
-52 19 -478 0 -505 0 -504 -78 -544 -29 -16 -199 -17 -2138 -17 -2051 0 -2107
0 -2143 19 -20 11 -46 34 -56 52 -18 31 -19 58 -19 483 0 354 3 457 13 476 17
32 58 68 85 73 11 3 972 4 2135 3 1961 -1 2117 -2 2139 -18z"/>
<path d="M4168 1255 c-112 -63 -74 -249 53 -256 57 -3 67 0 104 32 61 53 64
144 8 201 -36 36 -121 48 -165 23z"/>
<path d="M694 975 c-2 -5 -2 -80 -1 -165 l2 -154 158 -1 c95 0 162 4 166 10 6
8 8 288 2 316 -2 11 -323 6 -327 -6z"/>
<path d="M1192 821 l3 -166 159 0 c117 0 160 3 163 12 7 17 9 313 3 314 -3 1
-78 3 -168 4 l-162 2 2 -166z"/>
<path d="M1695 984 c-8 -3 -12 -277 -6 -324 1 -3 75 -5 166 -5 l165 0 0 165 0
166 -157 0 c-87 1 -162 -1 -168 -2z"/>
<path d="M2214 976 c-3 -7 -3 -81 -2 -166 l3 -155 160 0 160 0 0 165 0 165
-158 1 c-113 1 -160 -2 -163 -10z"/>
</g>
</svg>
